<svg xmlns="http://www.w3.org/2000/svg" viewBox="0 0 64 64" id="astronaut">
  <path fill="#4aa5ff" d="M46,15h3c1.65575,0,3,1.34425,3,3v4c0,1.65575-1.34425,3-3,3h-3V15h0Z"></path>
  <path fill="#21257c" d="M49,26h-3c-.55225,0-1-.44727-1-1V15c0-.55273,.44775-1,1-1h3c2.20557,0,4,1.79395,4,4v4c0,2.20605-1.79443,4-4,4Zm-2-2h2c1.10303,0,2-.89746,2-2v-4c0-1.10254-.89697-2-2-2h-2v8Z"></path>
  <path fill="#4aa5ff" d="M12,15h3c1.65575,0,3,1.34425,3,3v4c0,1.65575-1.34425,3-3,3h-3V15h0Z" transform="rotate(-180 15 20)"></path>
  <path fill="#21257c" d="M18 26h-3c-2.20557 0-4-1.79395-4-4v-4c0-2.20605 1.79443-4 4-4h3c.55225 0 1 .44727 1 1v10c0 .55273-.44775 1-1 1zm-3-10c-1.10303 0-2 .89746-2 2v4c0 1.10254.89697 2 2 2h2v-8h-2zM49 16c-.55225 0-1-.44727-1-1v-5c0-.55273.44775-1 1-1s1 .44727 1 1v5c0 .55273-.44775 1-1 1z"></path>
  <path fill="#e6f3ff" d="M35,33h-6c-16.10549-.24816-16.12677-25.73126,.00009-26.00002-.00009,.00002,5.99991,.00002,5.99991,.00002,16.13058,.27122,16.10162,25.7534,0,26Z"></path>
  <path fill="#21257c" d="M35,34h-6c-8.1918-.06819-13.73379-7.02064-12.99984-15.00002-.00016-7.16795,5.83138-12.99998,12.99984-12.99998h6c17.43747,.32333,17.43366,27.69449,0,28Zm-6-26c-6.06543,0-11,4.93457-11,11v2c0,6.06543,4.93457,11,11,11h6c6.06543,0,11-4.93457,11-11v-2c0-6.06543-4.93457-11-11-11h-6Z"></path>
  <rect width="22" height="10" x="21" y="14" fill="#4aa5ff" rx="3" ry="3"></rect>
  <path fill="#21257c" d="M54.59082,6.7998c-.30469,0-.60596-.13867-.80225-.40137-2.22782-3.16925-7.34944-3.16907-9.57714,.00012-.7825,1.04375-2.38301-.14554-1.6025-1.19743,1.51998-2.03413,3.84908-3.20112,6.39107-3.20112s4.87109,1.16699,6.39111,3.20117c.50115,.62862-.00725,1.62279-.80029,1.59863Z"></path>
  <path fill="#21257c" d="M51.40088,9.2002c-.30371,0-.60352-.1377-.7998-.39844-.76758-1.01953-2.43457-1.01953-3.20215,0-.78944,1.03978-2.38041-.1537-1.59761-1.20317,1.49893-2.11201,4.89858-2.11206,6.39742,.00013,.50477,.62821-.0034,1.6257-.79785,1.60148Z"></path>
  <path fill="#4aa5ff" d="M41.5,37H22.5c-3.29163-.08141-3.3013-4.91592,.00008-5-.00008,0,18.99993,0,18.99993,0,3.29163,.08141,3.3013,4.91592,0,5Z"></path>
  <path fill="#21257c" d="M41.5,38H22.5c-4.61996-.14495-4.62904-6.85207,.00008-7-.00008,0,18.99992,0,18.99992,0,4.61996,.14495,4.62904,6.85207,0,7Zm-19-5c-1.96536,.03331-1.97583,2.96452,.00007,3-.00007,0,18.99993,0,18.99993,0,1.96536-.03331,1.97583-2.96452-.00007-3,.00007,0-18.99993,0-18.99993,0Z"></path>
  <path fill="#4aa5ff" d="M24,37h16c8.27873,0,15,6.72127,15,15v9H9v-9c0-8.27873,6.72127-15,15-15Z"></path>
  <path fill="#21257c" d="M55,62H9c-.55225,0-1-.44727-1-1v-9c0-8.82227,7.17773-16,16-16h16c8.82227,0,16,7.17773,16,16v9c0,.55273-.44775,1-1,1Zm-45-2H54v-8c0-7.71973-6.28027-14-14-14H24c-7.71973,0-14,6.28027-14,14v8Z"></path>
  <rect width="16" height="10" x="24" y="41" fill="#e6f3ff" rx="2" ry="2"></rect>
  <path fill="#21257c" d="M40.00098 47.15039c-1.02229.02192-1.38966-1.4407-.45064-1.89356 3.12837-1.57421 5.36812-4.11132 6.14497-6.95995.146-.5332.69287-.84766 1.22803-.70215.53271.14551.84668.69531.70166 1.22754-.95898 3.40572-3.77814 6.8718-7.62402 8.32812zM23.99902 47.15039c-3.84685-1.45732-6.66388-4.92127-7.6241-8.32801-.14494-.53235.16902-1.08215.70174-1.22766.53271-.14844 1.08203.16797 1.22803.70215.77686 2.84863 3.0166 5.38574 6.14502 6.95996.93681.43175.56247 1.93277-.45068 1.89355zM31.99268 48c-.67144.06969-1.26931-1.04228-1.66357-1.43652-.39803.39651-.99145 1.5044-1.66504 1.43652-.28962.01918-.65034-.19137-.76983-.36191-.03406-.03835-1.37602-1.65259-1.70037-2.04644-.75401-1.07526.79388-2.18578 1.57597-1.22974.03726.04473.89472 1.07462.89472 1.07462 1.49026-1.94229 1.84496-1.93693 3.3291.00098 1.496-1.94925 1.84478-1.93219 3.33643.00195l.90234-1.08008c.84138-.99909 2.36975.27289 1.53511 1.2813.00004-.00005-1.66988 1.99995-1.66988 1.99995-.37988.45508-1.15527.45508-1.53516 0l-.90186-1.08008c-.39832.39657-.99378 1.50744-1.66797 1.43945zM20 62c-.55225 0-1-.44727-1-1v-7c0-.55273.44775-1 1-1s1 .44727 1 1v7c0 .55273-.44775 1-1 1zM44 62c-.55225 0-1-.44727-1-1v-7c0-.55273.44775-1 1-1s1 .44727 1 1v7c0 .55273-.44775 1-1 1z"></path>
  <path fill="#e6f3ff" d="M21 22c-.85409.029-1.34566-1.11209-.70698-1.70704-.00005.00001 6.99995-6.99999 6.99995-6.99999.92555-.9187 2.33678.48363 1.41401 1.41411.00005-.00004-6.99995 6.99996-6.99995 6.99996-.19531.19531-.45117.29297-.70703.29297zM24 25c-.85363.02854-1.34599-1.11176-.70698-1.70704-.00005.00001 9.99995-9.99999 9.99995-9.99999.92421-.91778 2.33764.48271 1.41401 1.41411.00005-.00004-9.99995 9.99996-9.99995 9.99996-.19531.19531-.45117.29297-.70703.29297zM30 25c-.85363.02854-1.34599-1.11176-.70698-1.70704-.00005.00001 9.99995-9.99999 9.99995-9.99999.92421-.91778 2.33764.48271 1.41401 1.41411.00005-.00004-9.99995 9.99996-9.99995 9.99996-.19531.19531-.45117.29297-.70703.29297zM36 25c-.85409.029-1.34566-1.11209-.70698-1.70704-.00005.00001 6.99995-6.99999 6.99995-6.99999.92555-.9187 2.33678.48363 1.41401 1.41411.00005-.00004-6.99995 6.99996-6.99995 6.99996-.19531.19531-.45117.29297-.70703.29297z"></path>
  <path fill="#21257c" d="M40,25H24c-2.20557,0-4-1.79395-4-4v-4c0-2.20605,1.79443-4,4-4h16c2.20557,0,4,1.79395,4,4v4c0,2.20605-1.79443,4-4,4ZM24,15c-1.10303,0-2,.89746-2,2v4c0,1.10254,.89697,2,2,2h16c1.10303,0,2-.89746,2-2v-4c0-1.10254-.89697-2-2-2H24Z"></path>
  <path fill="#e6f3ff" d="M38,52h-12c-1.6543,0-3-1.3457-3-3v-6c0-1.6543,1.3457-3,3-3h12c1.6543,0,3,1.3457,3,3v6c0,1.6543-1.3457,3-3,3Zm-12-10c-.55127,0-1,.44824-1,1v6c0,.55176,.44873,1,1,1h12c.55127,0,1-.44824,1-1v-6c0-.55176-.44873-1-1-1h-12Z"></path>
</svg>
