<svg xmlns="http://www.w3.org/2000/svg" fill="none" viewBox="0 0 96 96" id="book">
  <path fill="url(#paint0_linear_787_18255)" fill-rule="evenodd" d="M23.5 19C23.5 15.4101 26.4101 12.5 30 12.5H32.519L32.6657 31.6891C32.6922 35.1602 37.2111 36.4796 39.1012 33.5681L43.5955 26.6452L48.0644 33.5289C49.962 36.452 54.5 35.1081 54.5 31.6231L54.5 12.5H55H75C75.2761 12.5 75.5 12.7239 75.5 13V44V65.5H55H30C27.5878 65.5 25.3491 66.2427 23.5 67.5119V19ZM30 7.5H32.4808H35H52H54.5H55H75C78.0376 7.5 80.5 9.96243 80.5 13V44V65.5V68V76.4444V83.5C80.5 86.5376 78.0376 89 75 89H69H30C23.6487 89 18.5 83.8513 18.5 77.5V77V19C18.5 12.6487 23.6487 7.5 30 7.5ZM37.6273 26.6559L37.5192 12.5H49.5L49.5 26.5578L47.3699 23.2766C45.5957 20.5437 41.5953 20.5437 39.8211 23.2766L37.6273 26.6559ZM23.5 77V77.5C23.5 81.0899 26.4101 84 30 84H69H75C75.2761 84 75.5 83.7761 75.5 83.5V79.5H52C50.6193 79.5 49.5 78.3807 49.5 77C49.5 75.6193 50.6193 74.5 52 74.5H75.5V70.5H55H30C26.4101 70.5 23.5 73.4101 23.5 77Z" clip-rule="evenodd"></path>
  <defs>
    <linearGradient id="paint0_linear_787_18255" x1="49.5" x2="49.5" y1="7.5" y2="89" gradientUnits="userSpaceOnUse">
      <stop stop-color="#1c00fb" class="stopColor00fb55 svgShape"></stop>
      <stop offset="1" stop-color="#3321c5" class="stopColor00b76a svgShape"></stop>
    </linearGradient>
  </defs>
</svg>
