<svg xmlns="http://www.w3.org/2000/svg" xmlns:xlink="http://www.w3.org/1999/xlink" viewBox="0 0 32 32" id="brain">
  <defs>
    <linearGradient id="a" x1="-.77" x2="30.64" y1=".93" y2="32.93" gradientUnits="userSpaceOnUse">
      <stop offset="0" stop-color="#093849" class="stopColorea5455 svgShape"></stop>
      <stop offset="1" stop-color="#92e1fe" class="stopColorfeb692 svgShape"></stop>
    </linearGradient>
    <linearGradient xlink:href="#a" id="b" x1="-4.29" x2="27.12" y1="4.38" y2="36.38"></linearGradient>
    <linearGradient xlink:href="#a" id="c" x1="-4.66" x2="26.76" y1="4.74" y2="36.74"></linearGradient>
    <linearGradient xlink:href="#a" id="d" x1="3.43" x2="34.85" y1="-3.2" y2="28.8"></linearGradient>
    <linearGradient xlink:href="#a" id="e" x1="-6.63" x2="24.79" y1="6.67" y2="38.67"></linearGradient>
    <linearGradient xlink:href="#a" id="f" x1=".37" x2="31.79" y1="-.2" y2="31.8"></linearGradient>
    <linearGradient xlink:href="#a" id="g" x1="5.45" x2="36.87" y1="-5.19" y2="26.81"></linearGradient>
    <linearGradient xlink:href="#a" id="h" x1=".16" x2="31.58" y1=".01" y2="32.01"></linearGradient>
    <linearGradient xlink:href="#a" id="i" x1="5.12" x2="36.54" y1="-4.86" y2="27.14"></linearGradient>
    <linearGradient xlink:href="#a" id="j" x1="7.11" x2="38.52" y1="-6.81" y2="25.19"></linearGradient>
    <linearGradient xlink:href="#a" id="k" x1="-2.76" x2="28.66" y1="2.88" y2="34.88"></linearGradient>
  </defs>
  <path fill="url(#a)" d="M7.76 13.24a4.76 4.76 0 0 0 2 .42 5.59 5.59 0 0 0 2.9-.86 1 1 0 0 0-.16-1.74 2.9 2.9 0 0 1-1.66-1.83 1 1 0 0 0-2 .41 4.71 4.71 0 0 0 1.09 2 2.71 2.71 0 0 1-1.36-.24 1 1 0 0 0-1.32.51 1 1 0 0 0 .51 1.33Z"></path>
  <path fill="url(#b)" d="M11.91 22.94a1 1 0 0 0 .81.4 1 1 0 0 0 .8-1.59c-.53-.73-.4-2.39-.16-3.43 0-.12.06-.23.08-.34a1 1 0 0 0-1.95-.45l-.06.23a3 3 0 0 1-3 2.23 1 1 0 0 0 0 2 5.14 5.14 0 0 0 2.79-.8 4.16 4.16 0 0 0 .69 1.75Z"></path>
  <path fill="url(#c)" d="M7.25 15.22a1 1 0 1 0-1.71-1C5 15 4.48 16.79 5.69 18a1 1 0 0 0 .7.29A1 1 0 0 0 7.1 18a1 1 0 0 0 0-1.42c-.38-.38.14-1.33.15-1.36Z"></path>
  <path fill="url(#d)" d="M11.48 4.55a1 1 0 0 0-.84 1.14 1 1 0 0 0 1.13.84s.28 0 .35.19a1 1 0 0 0 1 .68 1 1 0 0 0 .33-.06A1 1 0 0 0 14 6.07a2.31 2.31 0 0 0-2.52-1.52Z"></path>
  <path fill="url(#e)" d="M12.93 24.47a2.91 2.91 0 0 0-2.37 1.38 1 1 0 0 0 .44 1.33.92.92 0 0 0 .42.1 1 1 0 0 0 .91-.58 1.35 1.35 0 0 1 .69-.23 1 1 0 0 0-.13-2Z"></path>
  <path fill="url(#f)" d="M31 15.57a5.25 5.25 0 0 0-1.57-3.71 5.1 5.1 0 0 0 .21-1.46 5.2 5.2 0 0 0-4.78-5.18 4.41 4.41 0 0 0-.15-.55A5.18 5.18 0 0 0 16 2.61a5.19 5.19 0 0 0-8.71 2 3.39 3.39 0 0 0-.14.57 5.2 5.2 0 0 0-4.79 5.22 5.1 5.1 0 0 0 .21 1.46A5.25 5.25 0 0 0 1 15.57a5.18 5.18 0 0 0 1.56 3.7 5.36 5.36 0 0 0-.2 1.43 5.21 5.21 0 0 0 4.69 5.18 5 5 0 0 0 .24 1.45A5.18 5.18 0 0 0 16 29.39a5.19 5.19 0 0 0 8.71-2 5.26 5.26 0 0 0 .29-1.51 5.21 5.21 0 0 0 4.69-5.18 5.36 5.36 0 0 0-.2-1.43 5.18 5.18 0 0 0 1.51-3.7ZM12.25 29a3.15 3.15 0 0 1-3.05-2.26 3 3 0 0 1-.15-.94 2.82 2.82 0 0 1 .09-.71 1 1 0 0 0-.24-.94 1 1 0 0 0-.73-.32h-.19a2.09 2.09 0 0 1-.42 0 3.2 3.2 0 0 1-3.2-3.2 3.33 3.33 0 0 1 .29-1.34 1 1 0 0 0-.33-1.22A3.17 3.17 0 0 1 3 15.57 3.21 3.21 0 0 1 4.34 13a1 1 0 0 0 .31-1.23A3.21 3.21 0 0 1 7.56 7.2a2 2 0 0 1 .32 0 1 1 0 0 0 .81-.2 1 1 0 0 0 .36-.79 3.25 3.25 0 0 1 .15-1 3.2 3.2 0 0 1 5.8-.64v22.85A3.16 3.16 0 0 1 12.25 29Zm15.43-10.86a1 1 0 0 0-.33 1.22 3.33 3.33 0 0 1 .29 1.34 3.2 3.2 0 0 1-3.2 3.2 2.09 2.09 0 0 1-.42 0 1 1 0 0 0-.92.3 1 1 0 0 0-.24.94 2.82 2.82 0 0 1 .09.71 3.25 3.25 0 0 1-.15 1 3.19 3.19 0 0 1-5.8.66V4.57a3.19 3.19 0 0 1 5.8.69 3.13 3.13 0 0 1 .15 1 1 1 0 0 0 .37.76 1 1 0 0 0 .82.22 1.54 1.54 0 0 1 .3 0 3.21 3.21 0 0 1 2.91 4.54 1 1 0 0 0 .31 1.22A3.21 3.21 0 0 1 29 15.57a3.17 3.17 0 0 1-1.32 2.57Z"></path>
  <path fill="url(#g)" d="M21.19 9.24a2.91 2.91 0 0 1-1.66 1.82 1 1 0 0 0-.16 1.74 5.59 5.59 0 0 0 2.9.86 4.76 4.76 0 0 0 2-.42 1 1 0 0 0-.82-1.83 2.73 2.73 0 0 1-1.36.24 4.66 4.66 0 0 0 1.09-2 1 1 0 0 0-2-.4Z"></path>
  <path fill="url(#h)" d="M23.58 20a3 3 0 0 1-3-2.22c0-.11-.05-.2-.06-.24a1 1 0 0 0-2 .45c0 .11.05.22.08.33.21 1 .39 2.69-.16 3.44a1 1 0 0 0 .8 1.59 1 1 0 0 0 .81-.4 4.16 4.16 0 0 0 .68-1.75 5.14 5.14 0 0 0 2.79.8 1 1 0 0 0 0-2Z"></path>
  <path fill="url(#i)" d="M25.09 13.85a1 1 0 0 0-.34 1.38s.53 1 .15 1.35a1 1 0 0 0 0 1.42 1 1 0 0 0 .71.29 1 1 0 0 0 .7-.29c1.21-1.21.67-3 .15-3.81a1 1 0 0 0-1.37-.34Z"></path>
  <path fill="url(#j)" d="M18.6 7.34a1 1 0 0 0 .33.06 1 1 0 0 0 .95-.68s.08-.21.37-.18a1 1 0 0 0 .27-2A2.3 2.3 0 0 0 18 6.07a1 1 0 0 0 .6 1.27Z"></path>
  <path fill="url(#k)" d="M19.07 24.47a1 1 0 0 0-1.06.94 1 1 0 0 0 .99 1.06 1.36 1.36 0 0 1 .68.22 1 1 0 0 0 .91.58 1.06 1.06 0 0 0 .42-.09 1 1 0 0 0 .48-1.33 2.91 2.91 0 0 0-2.42-1.38Z"></path>
</svg>
