<svg xmlns="http://www.w3.org/2000/svg" viewBox="0 0 24 24" id="chat">
  <path fill="#549bff" d="m19,9.25h-2.177l-8.573,4.286v3.464c0,1.517,1.233,2.75,2.75,2.75h4.81c.191,0,.872.018,1.127.04l3.099,1.639c.148.059.305.087.46.087.249,0,.495-.073.707-.218.343-.233.548-.622.548-1.038v-8.26c0-1.517-1.233-2.75-2.75-2.75Z"></path>
  <path fill="#bad7ff" d="m15,2.25H5c-1.517,0-2.75,1.233-2.75,2.75v11c0,.477.265.905.691,1.118.179.09.37.133.561.133.265,0,.526-.084.748-.251l2.667-2c.215-.161.481-.25.75-.25h7.333c1.517,0,2.75-1.234,2.75-2.751v-6.999c0-1.517-1.233-2.75-2.75-2.75Z"></path>
  <path fill="#549bff" d="m14,7.75H6c-.414,0-.75-.336-.75-.75s.336-.75.75-.75h8c.414,0,.75.336.75.75s-.336.75-.75.75Zm.75,2.25c0-.414-.336-.75-.75-.75H6c-.414,0-.75.336-.75.75s.336.75.75.75h8c.414,0,.75-.336.75-.75Z"></path>
</svg>
