<svg xmlns="http://www.w3.org/2000/svg" viewBox="0 0 32 32" id="eclipse">
  <defs>
    <linearGradient id="a" x1="9.064" x2="21.972" y1="27.65" y2="5.293" gradientUnits="userSpaceOnUse">
      <stop offset="0" stop-color="#4c46c8"></stop>
      <stop offset="1" stop-color="#87bfff"></stop>
    </linearGradient>
  </defs>
  <path fill="url(#a)" d="M22 8a7.953 7.953 0 0 0-3.013.594A7.822 7.822 0 0 0 16 8a8 8 0 0 0 0 16 7.822 7.822 0 0 0 2.987-.594A8 8 0 1 0 22 8Zm-6 14a6 6 0 1 1 .684-11.961 7.962 7.962 0 0 0 0 11.922A5.954 5.954 0 0 1 16 22Zm6 0a6 6 0 1 1 6-6 6.006 6.006 0 0 1-6 6ZM15 5V3a1 1 0 0 1 2 0v2a1 1 0 0 1-2 0ZM6.1 7.515A1 1 0 0 1 7.515 6.1l1.414 1.415a1 1 0 1 1-1.414 1.414ZM6 16a1 1 0 0 1-1 1H3a1 1 0 0 1 0-2h2a1 1 0 0 1 1 1Zm2.929 7.071a1 1 0 0 1 0 1.414L7.515 25.9A1 1 0 0 1 6.1 24.485l1.414-1.414a1 1 0 0 1 1.415 0ZM17 27v2a1 1 0 0 1-2 0v-2a1 1 0 0 1 2 0Zm4-9a1 1 0 1 1-1-1 1 1 0 0 1 1 1Zm4-4a1 1 0 1 1-1-1 1 1 0 0 1 1 1Z"></path>
</svg>
