<svg xmlns="http://www.w3.org/2000/svg" enable-background="new 0 0 512 512" viewBox="0 0 512 512" id="graduationcap">
  <g fill="#3321c5" class="color000000 svgShape">
    <g fill="#3321c5" class="color000000 svgShape">
      <g fill="#3321c5" class="color000000 svgShape">
        <path d="M38.106 85.572L111 107.61v113.43c0 3.917 2.288 7.475 5.853 9.1 93.1 42.433 190.543 40.043 278.299-.002 3.563-1.626 5.849-5.182 5.849-9.098V191c0-5.523-4.477-10-10-10s-10 4.477-10 10v23.506c-19.707 8.325-67.228 25.526-125.175 26.535-59.286 1.035-100.571-15.568-124.825-26.448V113.656l122.106 36.916c1.888.57 3.9.57 5.788 0L381 113.656V151c0 5.523 4.477 10 10 10s10-4.477 10-10v-43.39l40-12.093v137c-11.639 4.128-20 15.243-20 28.28 0 16.542 13.458 30 30 30s30-13.458 30-30c0-13.036-8.361-24.152-20-28.28V89.47l12.894-3.898C478.113 84.296 481 80.408 481 76s-2.887-8.296-7.106-9.572l-215-65c-1.888-.57-3.9-.57-5.788 0l-74.06 22.39c-5.286 1.598-8.276 7.18-6.678 12.466 1.599 5.287 7.183 8.275 12.466 6.678L256 21.447 436.445 76 256 130.553 75.558 76l70.986-21.458c5.287-1.598 8.277-7.179 6.679-12.466-1.598-5.287-7.182-8.275-12.466-6.679l-102.65 31.03C33.887 67.703 31 71.591 31 76 31 80.408 33.886 84.296 38.106 85.572zM451 270.797c-5.514 0-10-4.486-10-10 0-5.504 4.47-9.983 9.971-9.999.01 0 .019.001.029.001s.019-.001.029-.001c5.501.016 9.971 4.494 9.971 9.999C461 266.311 456.514 270.797 451 270.797zM456 316H313.964c-.433-.535-.888-1.062-1.395-1.568-6.204-6.204-14.713-6.671-21.551-7.047-3.046-.167-6.499-.356-8.222-1.071-1.519-.63-3.967-2.85-6.127-4.809C271.507 296.825 265.083 291 256 291s-15.507 5.825-20.668 10.505c-2.16 1.958-4.608 4.179-6.127 4.809-1.723.715-5.176.904-8.222 1.071-6.837.375-15.347.842-21.55 7.046-.507.507-.962 1.034-1.395 1.569H107.42c-5.523 0-10 4.477-10 10s4.477 10 10 10h84.964c-.167 3.042-.357 6.484-1.07 8.204-1.423 3.432-9.04 9.395-12.808 16.796H22.446c4.2-14.164 17.392-25 33.554-25h11.42c5.523 0 10-4.477 10-10s-4.477-10-10-10H56c-30.396 0-55 24.597-55 55 0 30.327 24.673 55 55 55h142.037c3.366 4.157 7.756 6.388 12.963 7.51V501c0 3.565 1.897 6.86 4.981 8.649 3.083 1.79 6.886 1.802 9.98.034L256 492.518l30.039 17.165c3.078 1.759 6.88 1.766 9.98-.034C299.103 507.86 301 504.565 301 501v-67.489c5.195-1.12 9.592-3.345 12.963-7.511H456c30.327 0 55-24.673 55-55S486.327 316 456 316zM401.911 381c1.73 9.38 5.855 17.928 11.705 25h-93.999c.167-3.042.357-6.484 1.07-8.204 1.422-3.428 9.036-9.388 12.808-16.796H401.911zM222.079 327.355c4.645-.255 9.909-.544 14.787-2.567 4.723-1.958 8.536-5.417 11.901-8.467 2.051-1.859 5.868-5.321 7.234-5.321s5.183 3.461 7.234 5.321c3.365 3.051 7.178 6.509 11.901 8.467 4.878 2.023 10.142 2.312 14.787 2.567 2.79.153 7.458.41 8.482 1.193.071.091.136.216.198.356.064.212.143.418.221.624.508 1.82.699 5.298.823 7.551.255 4.645.544 9.909 2.567 14.787 1.958 4.723 5.417 8.536 8.467 11.901 1.859 2.051 5.321 5.868 5.321 7.234s-3.461 5.184-5.321 7.234c-3.051 3.365-6.508 7.178-8.467 11.9-3.241 7.815-2.072 16.946-3.313 22.101-.332.816-.278.946-.447 1.167-1.073.833-5.741 1.089-8.53 1.242-4.645.255-9.909.544-14.787 2.567-4.723 1.958-8.536 5.417-11.901 8.467C261.183 427.539 257.366 431 256 431s-5.183-3.461-7.234-5.321c-3.365-3.051-7.178-6.509-11.901-8.467-4.878-2.023-10.142-2.312-14.787-2.567-2.79-.153-7.458-.41-8.482-1.193-.071-.091-.136-.216-.198-.356-.064-.212-.143-.418-.221-.624-.508-1.82-.699-5.298-.823-7.551-.255-4.645-.544-9.909-2.567-14.787-1.958-4.723-5.417-8.536-8.467-11.901C199.461 376.183 196 372.366 196 371s3.461-5.183 5.321-7.234c3.051-3.365 6.509-7.178 8.467-11.901 3.241-7.815 2.072-16.946 3.313-22.101.332-.816.278-.946.447-1.167C214.622 327.764 219.29 327.508 222.079 327.355zM22.455 381h156.05c2.126 4.176 5.256 7.642 8 10.668 1.958 2.16 4.179 4.608 4.809 6.127.714 1.72.904 5.163 1.07 8.204H56C40.175 406 26.769 395.442 22.455 381zM260.961 472.317c-3.074-1.757-6.849-1.757-9.923 0L231 483.768v-46.975c1.334.989 2.894 2.399 4.332 3.702C240.493 445.175 246.917 451 256 451c11.811 0 19.125-9.85 25-14.207v46.975L260.961 472.317zM456 406c-19.299 0-35-15.701-35-35 0-5.523-4.477-10-10-10h-77.505c-2.126-4.176-5.256-7.642-8-10.668-1.958-2.16-4.179-4.608-4.809-6.127-.714-1.72-.904-5.163-1.07-8.204H456c19.299 0 35 15.701 35 35S475.299 406 456 406z" fill="#3321c5" class="color000000 svgShape"></path>
        <path d="M251,381h10c5.523,0,10-4.477,10-10s-4.477-10-10-10h-10c-5.523,0-10,4.477-10,10S245.477,381,251,381z" fill="#3321c5" class="color000000 svgShape"></path>
      </g>
    </g>
  </g>
</svg>
