<svg xmlns="http://www.w3.org/2000/svg" enable-background="new 0 0 64 64" viewBox="0 0 64 64" id="home-location">
  <linearGradient id="a" x1="11.431" x2="52.633" y1="53.009" y2="11.807" gradientUnits="userSpaceOnUse">
    <stop offset="0" stop-color="#be53ff"></stop>
    <stop offset="1" stop-color="#6be2dd"></stop>
  </linearGradient>
  <path fill="url(#a)" d="M38.7,52.3c6.1-7.9,14.7-20.8,14.7-31C53.3,9.6,43.8,0,32,0S10.7,9.6,10.7,21.3c0,10.2,8.6,23.1,14.7,31c-4.4,0.9-7.8,2.8-7.8,5.5c0,4,7.5,6.2,14.5,6.2s14.4-2.2,14.4-6.2C46.5,55.1,43.1,53.3,38.7,52.3z M32,2c10.7,0,19.3,8.7,19.3,19.3c0,13-15.7,31.8-19.3,36c-3.6-4.2-19.3-23-19.3-36C12.7,10.7,21.3,2,32,2z M32,62c-7.7,0-12.5-2.4-12.5-4.2c0-1.3,2.6-3,7.2-3.7c2.5,3.1,4.3,5.1,4.6,5.4c0.2,0.2,0.5,0.3,0.7,0.3c0.3,0,0.5-0.1,0.7-0.3c0.2-0.3,2.1-2.3,4.6-5.4c4.5,0.8,7.1,2.4,7.1,3.7C44.5,59.6,39.7,62,32,62z M48.6,21.3c0-9.2-7.4-16.6-16.6-16.6s-16.6,7.5-16.6,16.6c0,9.2,7.5,16.6,16.6,16.6C41.2,37.9,48.6,30.5,48.6,21.3z M17.4,21.3C17.4,13.2,24,6.7,32,6.7c8.1,0,14.6,6.6,14.6,14.6c0,3.9-1.5,7.4-4,10.1V21.1h1.7c0.4,0,0.8-0.3,0.9-0.7c0.1-0.4,0-0.8-0.3-1.1L32.6,8.9c-0.4-0.3-0.9-0.3-1.3,0L19.1,19.3c-0.3,0.3-0.4,0.7-0.3,1.1s0.5,0.7,0.9,0.7h1.6v10.3C18.9,28.8,17.4,25.2,17.4,21.3z M35.6,26.1h-7.2c-0.6,0-1,0.4-1,1v8.1c-1.4-0.5-2.8-1.2-4-2.1v-12h17.1v12.1c-1.2,0.9-2.5,1.6-4,2.1v-8.1C36.6,26.6,36.1,26.1,35.6,26.1z M22.5,19.1L32,11l9.5,8.1H22.5z M29.4,35.7v-7.6h5.2v7.6c-0.8,0.2-1.7,0.2-2.6,0.2C31.1,35.9,30.3,35.9,29.4,35.7z"></path>
</svg>
