<svg xmlns="http://www.w3.org/2000/svg" fill-rule="evenodd" stroke-linejoin="round" stroke-miterlimit="2" clip-rule="evenodd" viewBox="0 0 96 96" id="programmer">
  <rect width="96" height="96" fill="none"></rect>
  <path d="M24.455,91.459l-12.635,0c-0.844,0 -1.527,-0.684 -1.527,-1.527c-0,-0 -0,-17.056 -0,-17.056c-0,-11.953 9.794,-18.496 21.747,-18.496c2.629,-0 5.372,-0.883 8.161,-1.76c4.759,3.223 9.519,3.223 14.278,-0.001c2.789,0.878 5.532,1.761 8.16,1.761c11.954,-0 21.748,6.543 21.748,18.496c0,0 0,17.056 0,17.056c0,0.843 -0.684,1.527 -1.527,1.527l-12.635,0c-0.828,0 -1.5,0.672 -1.5,1.5c-0,0.828 0.672,1.5 1.5,1.5l12.635,0c2.5,0 4.527,-2.027 4.527,-4.527l0,-17.056c0,-13.725 -11.022,-21.496 -24.748,-21.496c-2.568,-0 -5.242,-0.996 -7.975,-1.846c-0.455,-0.142 -0.951,-0.058 -1.335,0.225c-3.993,2.943 -7.985,2.943 -11.978,-0c-0.384,-0.283 -0.88,-0.367 -1.336,-0.225c-2.732,0.85 -5.407,1.846 -7.975,1.846c-13.725,-0 -24.747,7.771 -24.747,21.496c-0,6.789 -0,13.369 -0,17.056c-0,2.5 2.027,4.527 4.527,4.527c-0,0 12.635,0 12.635,0c0.828,0 1.5,-0.672 1.5,-1.5c0,-0.828 -0.672,-1.5 -1.5,-1.5Z" fill="#3321c5" class="color000000 svgShape"></path>
  <path d="M45.84 61.309l0 2.009c0 .828.672 1.5 1.5 1.5.828 0 1.5-.672 1.5-1.5l0-2.009c0-.828-.672-1.5-1.5-1.5-.828 0-1.5.672-1.5 1.5zM54.664 49.534c-.455-.142-.951-.058-1.335.225-1.831 1.35-3.652 2.108-5.484 2.226-.552.036-1.04.373-1.269.877-.229.504-.161 1.093.175 1.532 0 0 2.24 2.926 3.652 4.77 1.109 1.449 3.142 1.81 4.682.83l9.179-5.839c.557-.354.817-1.031.64-1.667-.176-.636-.748-1.082-1.408-1.098-.284-.007-.57-.01-.857-.01-2.568 0-5.242-.996-7.975-1.846zm4.372 4.392l-5.562 3.537c-.226.144-.526.091-.689-.122l-2.171-2.836c1.289-.392 2.578-1.018 3.864-1.886l0 0c1.537.484 3.06.969 4.558 1.307z" fill="#3321c5" class="color000000 svgShape"></path>
  <path d="M41.351,49.759c-0.384,-0.283 -0.88,-0.367 -1.336,-0.225c-2.732,0.85 -5.407,1.846 -7.975,1.846c-0.287,-0 -0.572,0.003 -0.856,0.01c-0.66,0.016 -1.232,0.462 -1.409,1.098c-0.176,0.636 0.084,1.313 0.641,1.667l9.179,5.839c1.54,0.98 3.573,0.619 4.682,-0.83c1.412,-1.844 3.652,-4.77 3.652,-4.77c0.336,-0.439 0.403,-1.028 0.174,-1.532c-0.229,-0.504 -0.716,-0.841 -1.269,-0.877c-1.831,-0.118 -3.652,-0.876 -5.483,-2.226Zm-1.149,2.86c1.286,0.869 2.575,1.495 3.863,1.886l-2.17,2.836c-0.163,0.213 -0.463,0.266 -0.69,0.122l-5.561,-3.537c1.498,-0.338 3.021,-0.823 4.558,-1.307Z" fill="#3321c5" class="color000000 svgShape"></path>
  <path d="M41.951 51.137c.156-1.361.283-2.768.38-4.199.056-.826-.569-1.542-1.395-1.598-.826-.056-1.542.569-1.598 1.395-.094 1.384-.217 2.744-.367 4.061-.095.822.497 1.566 1.319 1.661.823.094 1.567-.497 1.661-1.32zm10.177-10.201c.02 3.478.23 6.966.601 10.201.094.823.838 1.414 1.661 1.32.822-.095 1.413-.839 1.319-1.661-.358-3.133-.561-6.511-.582-9.878-.004-.828-.681-1.496-1.508-1.491-.828.005-1.496.681-1.491 1.509zM9.298 87.079l10.871 0c.828 0 1.5-.672 1.5-1.5 0-.828-.672-1.5-1.5-1.5l-10.871 0c-.828 0-1.5.672-1.5 1.5 0 .828.672 1.5 1.5 1.5zM74.511 87.079l10.871 0c.828 0 1.5-.672 1.5-1.5 0-.828-.672-1.5-1.5-1.5l-10.871 0c-.828 0-1.5.672-1.5 1.5 0 .828.672 1.5 1.5 1.5z" fill="#3321c5" class="color000000 svgShape"></path>
  <path d="M59.543,18.856c0.057,1.455 0.085,9.542 0.086,9.742c-0,3.259 -1.295,6.384 -3.599,8.688c-1.248,1.248 -3.751,2.76 -5.831,3.931c-0.017,0.01 -0.034,0.02 -0.05,0.03c-1.734,1.066 -3.922,1.064 -5.654,-0.007c-0.016,-0.011 -0.033,-0.021 -0.05,-0.03c-2.067,-1.17 -4.55,-2.679 -5.795,-3.924c-2.304,-2.304 -3.599,-5.429 -3.599,-8.688c0,-0.2 0.029,-8.287 0.086,-9.742c0.027,-0.148 0.033,-0.303 0.013,-0.46c-0.093,-0.727 -0.522,-0.981 -0.612,-1.047c-0.372,-0.27 -0.755,-0.328 -1.126,-0.266c-0.273,0.045 -0.574,0.161 -0.846,0.448c-0.036,0.039 -0.39,0.384 -0.424,1.126c-0.06,1.304 -0.091,9.935 -0.091,9.935c-0,0.001 -0,0.003 -0,0.005c-0,4.055 1.61,7.943 4.478,10.81c1.384,1.385 4.117,3.099 6.418,4.402c2.687,1.649 6.079,1.649 8.77,-0.005c2.295,-1.292 5.047,-3.009 6.434,-4.397c2.867,-2.867 4.478,-6.755 4.478,-10.81c0,-0.002 0,-0.004 0,-0.005c0,-0 -0.032,-8.631 -0.092,-9.935c-0.034,-0.742 -0.387,-1.087 -0.423,-1.126c-0.272,-0.287 -0.573,-0.403 -0.846,-0.448c-0.18,-0.03 -1.553,-0.136 -1.738,1.313c-0.02,0.157 -0.015,0.312 0.013,0.46Zm2.541,0.784c0.158,-0.142 0.363,-0.403 0.422,-0.865c-0.043,0.34 -0.197,0.638 -0.422,0.865Zm-29.489,-0c-0.224,-0.227 -0.378,-0.525 -0.421,-0.865c0.058,0.462 0.263,0.723 0.421,0.865Z" fill="#3321c5" class="color000000 svgShape"></path>
  <path d="M43.097 36.318c2.822 1.465 5.644 1.422 8.466.01.741-.37 1.041-1.272.671-2.012-.371-.741-1.273-1.041-2.013-.671-1.914.958-3.828 1.004-5.742.011-.735-.382-1.641-.095-2.023.64-.381.735-.094 1.641.641 2.022zM32.174 18.775c.079.625.542 1.134 1.157 1.273 6.841 1.546 13.139 1.48 17.976-2.657.004-.003.007-.007.011-.01.179-.156.446-.153.622.006.012.01.024.021.036.031 2.249 1.908 5.247 2.872 9.122 2.665.724-.039 1.317-.589 1.408-1.308.081-.638.123-1.286.123-1.945 0-8.438-6.851-15.289-15.289-15.289-8.438 0-15.289 6.851-15.289 15.289 0 .659.042 1.307.123 1.945zm2.888-1.424c-.008-.173-.011-.346-.011-.521 0-6.783 5.506-12.289 12.289-12.289 6.782 0 12.289 5.506 12.289 12.289 0 .091-.001.183-.003.273-2.336-.074-4.218-.722-5.676-1.944-1.325-1.176-3.287-1.186-4.603-.039-3.862 3.302-8.862 3.33-14.285 2.232l0-.001zM26.413 66.379l-5.13 0c-1.331 0-2.594.586-3.454 1.601-.861 1.016-1.23 2.358-1.012 3.671l3.173 19.025c.364 2.183 2.252 3.783 4.465 3.783 8.705 0 37.065 0 45.77 0 2.213 0 4.101-1.6 4.465-3.783.75-4.498 2.317-13.896 3.172-19.025.219-1.313-.151-2.655-1.011-3.671-.86-1.015-2.123-1.601-3.454-1.601-7.964 0-27.54 0-41.218 0-.828 0-1.5.672-1.5 1.5 0 .828.672 1.5 1.5 1.5 13.678 0 33.254 0 41.218 0 .449 0 .875.198 1.165.54.29.343.415.796.341 1.238 0 .001-3.172 19.026-3.172 19.026-.123.736-.76 1.276-1.506 1.276 0 0-45.77 0-45.77 0-.746 0-1.384-.54-1.506-1.276l-3.172-19.025c-.074-.443.051-.896.341-1.239.29-.342.716-.54 1.165-.54l5.13 0c.828 0 1.5-.672 1.5-1.5 0-.828-.672-1.5-1.5-1.5z" fill="#3321c5" class="color000000 svgShape"></path>
  <path d="M55.669 79.951c.17-1.02-.117-2.063-.786-2.852-.668-.789-1.65-1.244-2.684-1.244l-9.718 0c-1.034 0-2.016.455-2.684 1.244-.669.789-.956 1.832-.786 2.852l.349 2.093c.283 1.696 1.75 2.94 3.47 2.94 2.374 0 6.645 0 9.02 0 1.719 0 3.187-1.244 3.47-2.94l.349-2.093zm-2.959-.493l-.349 2.093c-.042.25-.258.433-.511.433-2.375 0-6.646 0-9.02 0-.253 0-.469-.183-.511-.433l-.349-2.093c-.025-.15.017-.304.116-.42.098-.116.243-.183.395-.183 0 0 9.718 0 9.718 0 .152 0 .297.067.395.183.098.116.141.27.116.42zM78.393 44.042l6.838-19.487c.274-.781-.138-1.638-.919-1.912-.781-.274-1.638.138-1.912.919l-6.838 19.486c-.274.781.138 1.638.919 1.912.781.274 1.638-.137 1.912-.918zM72.641 37.113l-3.643-3.643c-.202-.203-.202-.531 0-.733 0 0 3.643-3.643 3.643-3.643.586-.586.586-1.536 0-2.122-.585-.585-1.536-.585-2.121 0l-3.643 3.643c-1.374 1.374-1.374 3.602 0 4.976l3.643 3.643c.585.585 1.536.585 2.121 0 .586-.585.586-1.536 0-2.121zM90.826 39.234l3.644-3.643c1.373-1.374 1.373-3.602 0-4.976l-3.644-3.643c-.585-.585-1.535-.585-2.121 0-.585.586-.585 1.536 0 2.122l3.643 3.643c.203.202.203.53 0 .733 0 0-3.643 3.643-3.643 3.643-.585.585-.585 1.536 0 2.121.586.585 1.536.585 2.121 0zM2 19.103l13.743 0c.828 0 1.5-.672 1.5-1.5 0-.828-.672-1.5-1.5-1.5l-13.743 0c-.828 0-1.5.672-1.5 1.5 0 .828.672 1.5 1.5 1.5zM2 25.406l20.459 0c.828 0 1.5-.672 1.5-1.5 0-.828-.672-1.5-1.5-1.5l-20.459 0c-.828 0-1.5.672-1.5 1.5 0 .828.672 1.5 1.5 1.5zM2 38.012l20.459 0c.828 0 1.5-.672 1.5-1.5 0-.828-.672-1.5-1.5-1.5l-20.459 0c-.828 0-1.5.672-1.5 1.5 0 .828.672 1.5 1.5 1.5zM2 31.709l8.622 0c.828 0 1.5-.672 1.5-1.5 0-.828-.672-1.5-1.5-1.5l-8.622 0c-.828 0-1.5.672-1.5 1.5 0 .828.672 1.5 1.5 1.5zM16.747 31.709l5.712 0c.828 0 1.5-.672 1.5-1.5 0-.828-.672-1.5-1.5-1.5l-5.712 0c-.828 0-1.5.672-1.5 1.5 0 .828.672 1.5 1.5 1.5z" fill="#3321c5" class="color000000 svgShape"></path>
</svg>
