<svg xmlns="http://www.w3.org/2000/svg" enable-background="new 0 0 64 64" viewBox="0 0 64 64" id="rocket">
  <path d="M14.14 47.75c-.13 0-.26-.02-.38-.08-.36-.15-.59-.5-.59-.89v-.24c0-6.81 3.7-13.11 9.64-16.44.14-.08.31-.12.47-.12.54 0 .97.43.97.97 0 .4-.23.74-.57.89-4.71 2.67-7.83 7.42-8.46 12.72 2.79-2.18 6.2-3.77 9.98-4.65.52-.12 1.04.2 1.16.72.12.52-.2 1.04-.72 1.17-4.28 1-8.02 2.97-10.83 5.69C14.63 47.65 14.39 47.75 14.14 47.75zM49.86 47.77c-.25 0-.49-.1-.68-.28-2.79-2.73-6.53-4.7-10.84-5.71-.52-.12-.85-.64-.72-1.16.12-.52.64-.85 1.16-.72 3.8.89 7.21 2.48 9.99 4.66-.63-5.34-3.79-10.12-8.56-12.78-.47-.26-.63-.85-.37-1.32.26-.47.85-.64 1.32-.37 5.97 3.33 9.67 9.64 9.67 16.46v.26c0 .39-.23.74-.59.89C50.11 47.74 49.98 47.77 49.86 47.77zM35.97 48.86h-7.96c-.51 0-1-.22-1.33-.61-.33-.39-.47-.9-.39-1.41l.61-3.59c.09-.53.59-.88 1.12-.79.53.09.88.59.79 1.12l-.57 3.35h7.49l-.56-3.35c-.09-.53.27-1.03.8-1.12.52-.08 1.03.27 1.12.8l.6 3.58c.08.52-.06 1.03-.39 1.42C36.96 48.64 36.48 48.86 35.97 48.86zM35.77 47.15L35.77 47.15 35.77 47.15z"></path>
  <path d="M37.79,44.38H26.2c-0.42,0-0.8-0.27-0.92-0.68c-4.58-14.48-4.56-25.98,0.06-35.14c1.49-2.95,3.44-5.66,5.96-8.28
						c0.36-0.38,1.03-0.38,1.4,0c2.57,2.67,4.55,5.44,6.04,8.46c4.53,9.11,4.52,20.55-0.02,34.96
						C38.58,44.11,38.21,44.38,37.79,44.38z M26.91,42.44h10.16C41.25,28.86,41.22,18.11,37,9.61c-1.27-2.56-2.91-4.94-5-7.23
						c-2.05,2.25-3.66,4.57-4.93,7.07C22.75,17.99,22.7,28.79,26.91,42.44z"></path>
  <path d="M32.53,10.81c-2.13,0-4.34-0.29-6.61-0.86c-0.52-0.13-0.83-0.66-0.7-1.18c0.13-0.52,0.66-0.83,1.18-0.7
						c4.04,1.02,7.7,1.08,11.18,0.17c0.52-0.13,1.05,0.18,1.18,0.69c0.14,0.52-0.18,1.05-0.69,1.18
						C36.29,10.58,34.44,10.81,32.53,10.81z"></path>
  <g>
    <path d="M32,44.38c-0.32,0-0.62-0.16-0.8-0.42c-4.48-6.54-4.45-13.49,0.07-18.6c0.37-0.42,1.08-0.42,1.45,0
								c4.51,5.1,4.54,12.06,0.07,18.6C32.62,44.22,32.32,44.38,32,44.38C32,44.38,32,44.38,32,44.38z M32,27.55
								c-2.9,3.97-2.9,9.07,0,14.05C34.89,36.61,34.9,31.51,32,27.55z"></path>
  </g>
  <g>
    <path d="M32,22.7c-2.65,0-4.8-2.15-4.8-4.8s2.15-4.8,4.8-4.8c2.65,0,4.8,2.15,4.8,4.8S34.65,22.7,32,22.7z M32,15.03
								c-1.58,0-2.86,1.29-2.86,2.86s1.28,2.86,2.86,2.86c1.58,0,2.86-1.29,2.86-2.86S33.58,15.03,32,15.03z"></path>
  </g>
  <g>
    <path d="M40.54 58.93c-.54 0-.97-.43-.97-.97v-9.1c0-.54.43-.97.97-.97.54 0 .97.43.97.97v9.1C41.51 58.49 41.07 58.93 40.54 58.93zM36.27 61.08c-.54 0-.97-.43-.97-.97V51c0-.54.43-.97.97-.97.54 0 .97.43.97.97v9.1C37.24 60.64 36.81 61.08 36.27 61.08zM32 64c-.54 0-.97-.43-.97-.97V52.76c0-.54.43-.97.97-.97.54 0 .97.43.97.97v10.27C32.97 63.57 32.54 64 32 64zM27.73 61.08c-.54 0-.97-.43-.97-.97V51c0-.54.43-.97.97-.97.54 0 .97.43.97.97v9.1C28.7 60.64 28.27 61.08 27.73 61.08zM23.46 58.93c-.54 0-.97-.43-.97-.97v-9.1c0-.54.43-.97.97-.97.54 0 .97.43.97.97v9.1C24.43 58.49 24 58.93 23.46 58.93z"></path>
  </g>
</svg>
