<svg xmlns="http://www.w3.org/2000/svg" enable-background="new 0 0 512 512" viewBox="0 0 512 512" id="satellite">
  <linearGradient id="a" x1="144.139" x2="474.738" y1="367.872" y2="37.273" gradientUnits="userSpaceOnUse">
    <stop offset="0" stop-color="#093849" class="stopColor5580ff svgShape"></stop>
    <stop offset=".304" stop-color="#6cd8ff" class="stopColor6c98ff svgShape"></stop>
    <stop offset=".944" stop-color="#a7e8ff" class="stopColora7d5ff svgShape"></stop>
    <stop offset="1" stop-color="#ace9ff" class="stopColoracdbff svgShape"></stop>
  </linearGradient>
  <path fill="url(#a)" d="M370.833,175.377l-11.722,11.722l-34.176-34.175l11.722-11.722C346.333,154.003,357.96,165.629,370.833,175.377z M119.077,318.489c-6.703,6.703-6.703,17.619,0,24.322l50.146,50.146c6.703,6.703,17.582,6.667,24.285-0.036l8.572-8.572l-74.431-74.431L119.077,318.489z M113.023,214.677C64.94,166.594,37.289,138.943,5.062,106.716c-6.703-6.704-6.705-17.612-0.002-24.315l72.229-72.229c6.704-6.704,17.612-6.702,24.315,0.002c37.755,37.755,70.111,70.111,107.961,107.961c6.704,6.704,6.705,17.612,0.002,24.315l-11.398,11.398l11.529,11.529l-7.326,7.326l-11.529-11.529l-34.798,34.798l11.529,11.529l-7.326,7.326l-11.529-11.529l-11.381,11.381C130.635,221.382,119.726,221.381,113.023,214.677z M99.786,127.297l23.902,23.902l22.402-22.402l-23.902-23.902L99.786,127.297z M114.862,97.57L90.931,73.638L68.529,96.04l23.931,23.931L114.862,97.57z M131.014,158.525l23.904,23.904l22.402-22.402l-23.904-23.904L131.014,158.525z M183.159,106.38l-22.418,22.418l23.904,23.904c-0.52,0.519,17.076-17.058,17.595-17.578c2.663-2.663,2.663-6.999-0.002-9.664L183.159,106.38z M151.931,75.152L129.514,97.57l23.902,23.902l22.418-22.418L151.931,75.152z M120.675,43.895L98.257,66.313l23.931,23.931l22.418-22.418L120.675,43.895z M67.028,35.084l23.902,23.902l22.418-22.418L94.279,17.499c-2.665-2.665-7-2.665-9.664-0.002L67.028,35.084z M37.301,64.812l23.902,23.903l22.402-22.402L59.702,42.41L37.301,64.812z M31.457,118.46l22.42-22.42L29.975,72.138L12.386,89.726c-2.663,2.663-2.663,6.999,0.002,9.664L31.457,118.46z M62.715,149.717l22.419-22.42l-23.931-23.931l-22.419,22.419L62.715,149.717z M93.943,180.945l22.42-22.42L92.46,134.623l-22.42,22.419L93.943,180.945z M120.349,207.351c2.665,2.665,7,2.665,9.664,0.002c-1.022,1.023,15.343-15.359,17.58-17.597l-23.904-23.904l-22.419,22.42L120.349,207.351z M501.841,410.41c6.704,6.704,6.702,17.608-0.002,24.312l-72.229,72.229c-6.704,6.704-17.608,6.705-24.312,0.002c-31.637-31.636-71.341-71.34-107.965-107.964c-6.704-6.704-6.702-17.608,0.002-24.312l11.381-11.381l-11.51-11.509l7.326-7.326l11.501,11.502l34.798-34.798l-11.502-11.502l7.326-7.326l11.51,11.509l11.397-11.397c6.704-6.704,17.608-6.705,24.312-0.002C419.026,327.594,466.1,374.668,501.841,410.41z M444.203,367.424l-22.418,22.418l23.906,23.906l22.418-22.418L444.203,367.424z M329.576,357.088l23.899,23.898l22.402-22.402l-23.898-23.899L329.576,357.088z M360.801,388.312l23.931,23.931l22.402-22.402l-23.931-23.931L360.801,388.312z M392.058,419.569l23.906,23.906l22.402-22.402l-23.906-23.906L392.058,419.569z M412.946,336.167l-22.418,22.418l23.931,23.931l22.418-22.418L412.946,336.167z M359.304,327.36l23.899,23.899l22.418-22.418l-19.069-19.069c-2.662-2.662-6.997-2.662-9.66,0.002L359.304,327.36z M323.729,410.732l22.42-22.42l-23.899-23.899l-17.589,17.589c-2.663,2.663-2.663,6.999-0.002,9.66L323.729,410.732z M354.986,441.989l22.42-22.42l-23.931-23.931l-22.419,22.42L354.986,441.989z M386.218,473.22l22.42-22.42l-23.906-23.906l-22.42,22.419L386.218,473.22z M439.873,482.036l-23.909-23.909l-22.42,22.419l19.08,19.081c2.662,2.661,6.997,2.661,9.66-0.002L439.873,482.036z M469.601,452.309l-23.91-23.909l-22.402,22.402l23.909,23.91L469.601,452.309z M494.515,417.736l-19.08-19.08l-22.418,22.418l23.909,23.909l17.587-17.587C497.177,424.732,497.177,420.397,494.515,417.736z M506.949,157.135L354.899,5.085c-7.725-7.724-20.678-6.47-26.667,2.784c-25.494,39.706-12.198,100.402,31.648,144.247c43.846,43.846,104.542,57.142,144.248,31.648C513.369,177.786,514.607,164.793,506.949,157.135z M468.368,36.537l-41.649,25.746c-1.533-1.529,22.531,22.48,23.052,23l25.694-41.649C478.366,39.075,472.978,33.584,468.368,36.537z M208.103,278.758c-6.925,6.925-6.911,18.207,0.028,25.147c6.929,6.929,18.197,6.929,25.122,0.003c6.925-6.925,6.927-18.195-0.002-25.124C226.312,271.845,215.028,271.832,208.103,278.758z M273.646,213.214c-6.925,6.925-6.911,18.207,0.028,25.147c6.929,6.929,18.197,6.929,25.122,0.003c6.925-6.925,6.927-18.195-0.002-25.124C291.855,206.301,280.571,206.289,273.646,213.214z M380.87,253.471l-132.49,132.49c-8.278,8.278-21.758,8.278-30.036,0l-92.307-92.307c-8.278-8.278-8.242-21.722,0.036-30l132.49-132.49c8.278-8.278,21.685-8.278,29.963,0l92.307,92.307C389.111,231.75,389.148,245.193,380.87,253.471z M240.577,271.458c-10.982-10.982-28.835-10.992-39.801-0.027c-10.964,10.964-10.953,28.817,0.029,39.799c10.967,10.967,28.81,10.967,39.774,0.003C251.545,300.269,251.545,282.426,240.577,271.458z M306.121,205.915c-10.982-10.982-28.835-10.992-39.8-0.027c-10.964,10.964-10.953,28.817,0.028,39.799c10.967,10.967,28.81,10.967,39.774,0.004C317.088,234.725,317.088,216.882,306.121,205.915z"></path>
</svg>
